<svg xmlns="http://www.w3.org/2000/svg" width="23" height="23" viewBox="0 0 23 23" fill="none">
  <path d="M12.4629 11.7322L3.58039 13.2133C3.47827 13.2303 3.38244 13.2739 3.30253 13.3397C3.22262 13.4056 3.16145 13.4913 3.12518 13.5882L0.0625146 21.7915C-0.229954 22.5462 0.559003 23.2655 1.2831 22.9035L22.5106 12.2912C22.6577 12.2178 22.7813 12.1048 22.8678 11.9651C22.9542 11.8253 23 11.6643 23 11.5C23 11.3356 22.9542 11.1746 22.8678 11.0348C22.7813 10.8951 22.6577 10.7822 22.5106 10.7087L1.2831 0.0964181C0.559003 -0.26558 -0.229954 0.454879 0.0625146 1.20835L3.12636 9.41168C3.16246 9.50886 3.22355 9.5948 3.30347 9.66084C3.3834 9.72688 3.47932 9.77068 3.58157 9.78783L12.4641 11.2677C12.5188 11.2772 12.5683 11.3058 12.604 11.3483C12.6397 11.3907 12.6593 11.4445 12.6593 11.5C12.6593 11.5554 12.6397 11.6092 12.604 11.6516C12.5683 11.6941 12.5188 11.7227 12.4641 11.7322H12.4629Z" fill="#8BABD8"/>
</svg>