<svg xmlns="http://www.w3.org/2000/svg" width="23" height="23" viewBox="0 0 23 23" fill="none">
  <path d="M0.430734 11.4562L0.422956 11.3311C0.422967 11.0875 0.511828 10.8524 0.672868 10.6698C0.833908 10.4871 1.05606 10.3695 1.29765 10.339L1.4228 10.3312L10.3217 10.3305L10.3225 1.43156C10.3201 1.29879 10.3443 1.1669 10.3935 1.04357C10.4427 0.920242 10.516 0.807948 10.6091 0.713244C10.7021 0.618539 10.8132 0.543319 10.9356 0.491972C11.0581 0.440625 11.1895 0.41418 11.3223 0.41418C11.4551 0.414179 11.5865 0.440624 11.709 0.491971C11.8314 0.543318 11.9425 0.618539 12.0355 0.713244C12.1286 0.807949 12.2019 0.920242 12.2511 1.04357C12.3003 1.1669 12.3245 1.29879 12.3221 1.43156L12.3229 10.3305L21.2218 10.3312C21.4653 10.3312 21.7004 10.4201 21.8831 10.5811C22.0657 10.7422 22.1834 10.9643 22.2139 11.2059L22.2216 11.3311C22.2216 11.5746 22.1328 11.8097 21.9717 11.9923C21.8107 12.175 21.5885 12.2926 21.347 12.3231L21.2218 12.3309L12.3229 12.3316L12.3221 21.2305C12.3176 21.4927 12.2102 21.7426 12.0232 21.9264C11.8362 22.1102 11.5845 22.2132 11.3223 22.2132C11.0601 22.2132 10.8084 22.1102 10.6214 21.9264C10.4344 21.7426 10.327 21.4927 10.3224 21.2305L10.3217 12.3316L1.4228 12.3309C1.1793 12.3309 0.944164 12.242 0.761513 12.081C0.578862 11.9199 0.461247 11.6978 0.430734 11.4562L0.422956 11.3311L0.430734 11.4562Z" fill="#707991"/>
</svg>