<svg width="14" height="14" viewBox="0 0 14 14" fill="none" xmlns="http://www.w3.org/2000/svg">
<path d="M7 14C10.866 14 14 10.866 14 7C14 3.13402 10.866 0 7 0C3.13402 0 0 3.13402 0 7C0 10.866 3.13402 14 7 14Z" fill="#25D366"/>
<path fill-rule="evenodd" clip-rule="evenodd" d="M6.89759 10.733H6.89599C6.24911 10.7328 5.61349 10.5704 5.04894 10.2625L3 10.8L3.54833 8.79714C3.21009 8.21097 3.03212 7.54608 3.03239 6.86485C3.03326 4.7338 4.76713 3 6.89754 3C7.9315 3.00045 8.90195 3.40298 9.63168 4.13355C10.3614 4.86409 10.7631 5.83517 10.7627 6.86791C10.7618 8.9985 9.02862 10.7321 6.89759 10.733ZM5.14389 9.56281L5.26119 9.63241C5.75443 9.92513 6.31982 10.08 6.89629 10.0802H6.89759C8.66822 10.0802 10.1093 8.63905 10.1101 6.86769C10.1104 6.00929 9.77658 5.20218 9.17005 4.59494C8.56351 3.9877 7.75692 3.65312 6.89884 3.65282C5.12683 3.65282 3.6857 5.09384 3.68499 6.86509C3.68475 7.47211 3.85459 8.06326 4.17615 8.57473L4.25255 8.69628L3.92801 9.88174L5.14389 9.56281ZM8.71253 7.70004C8.77988 7.7326 8.82538 7.75459 8.8448 7.78701C8.86893 7.82728 8.86893 8.02066 8.78849 8.24626C8.70798 8.47187 8.32215 8.67775 8.1366 8.70546C7.97023 8.73035 7.75965 8.74072 7.52831 8.66719C7.38804 8.62269 7.20818 8.56327 6.97776 8.46377C6.07239 8.07282 5.46052 7.19532 5.34488 7.02946C5.33678 7.01784 5.33112 7.00972 5.32795 7.00549L5.32719 7.00446C5.27608 6.93627 4.93361 6.47934 4.93361 6.00647C4.93361 5.5616 5.15212 5.32844 5.25271 5.22111C5.25962 5.21377 5.26595 5.207 5.27162 5.20079C5.36015 5.10411 5.46477 5.07992 5.52915 5.07992C5.59353 5.07992 5.65799 5.08052 5.71426 5.08336C5.7212 5.08371 5.72843 5.08366 5.73588 5.0836C5.79216 5.08328 5.86233 5.08287 5.93155 5.24914C5.95818 5.31311 5.99715 5.40798 6.03824 5.50803C6.12133 5.71034 6.21317 5.93389 6.22931 5.96622C6.25347 6.01457 6.26955 6.07095 6.23735 6.13541C6.23253 6.14508 6.22806 6.15421 6.22378 6.16293C6.1996 6.2123 6.18183 6.24859 6.14077 6.29653C6.12466 6.31536 6.10798 6.33567 6.09129 6.35598C6.05806 6.39644 6.02486 6.43691 5.99593 6.46572C5.94756 6.51388 5.89724 6.56612 5.95357 6.66281C6.00991 6.75949 6.20374 7.07575 6.49083 7.33185C6.79947 7.60712 7.0677 7.72347 7.20366 7.78243C7.2302 7.79397 7.25171 7.80329 7.26749 7.81119C7.36402 7.85954 7.42035 7.85144 7.47671 7.78701C7.53305 7.72255 7.71813 7.50499 7.78248 7.40833C7.84686 7.3117 7.91127 7.32778 7.99977 7.35999C8.08834 7.39227 8.56313 7.62586 8.65971 7.67421C8.67856 7.68363 8.69619 7.69216 8.71253 7.70004Z" fill="#FDFDFD"/>
</svg>
